HIERARCHY
ROOT RootJoint
{
    OFFSET   0.000000   0.000000   0.000000
    CHANNELS 6 Xposition Yposition Zposition Xrotation Yrotation Zrotation
    JOINT pelvis_lowerback
    {
        OFFSET   0.000000   0.093605   0.000000
        CHANNELS 3 Xrotation Yrotation Zrotation
        JOINT lowerback_torso
        {
            OFFSET   0.000000   0.100000   0.000000
            CHANNELS 3 Xrotation Yrotation Zrotation
            JOINT torso_head
            {
                OFFSET   0.000000   0.282350   0.000000
                CHANNELS 3 Xrotation Yrotation Zrotation
                End Site
                {
                    OFFSET   0.000000   0.192650   0.000000
                }
            }
            JOINT rTorso_Clavicle
            {
                OFFSET  -0.001000   0.157500   0.000000
                CHANNELS 3 Xrotation Yrotation Zrotation
                JOINT rShoulder
                {
                    OFFSET  -0.117647   0.000000   0.000000
                    CHANNELS 3 Xrotation Yrotation Zrotation
                    JOINT rElbow
                    {
                        OFFSET  -0.245000   0.000000   0.000000
                        CHANNELS 3 Xrotation Yrotation Zrotation
                        JOINT rWrist
                        {
                            OFFSET  -0.240000   0.000000   0.000000
                            CHANNELS 3 Xrotation Yrotation Zrotation
                            End Site
                            {
                                OFFSET  -0.116353  -0.002500   0.000000
                            }
                        }
                    }
                }
            }
            JOINT lTorso_Clavicle
            {
                OFFSET   0.001000   0.157500   0.000000
                CHANNELS 3 Xrotation Yrotation Zrotation
                JOINT lShoulder
                {
                    OFFSET   0.117647   0.000000   0.000000
                    CHANNELS 3 Xrotation Yrotation Zrotation
                    JOINT lElbow
                    {
                        OFFSET   0.245000   0.000000   0.000000
                        CHANNELS 3 Xrotation Yrotation Zrotation
                        JOINT lWrist
                        {
                            OFFSET   0.240000   0.000000   0.000000
                            CHANNELS 3 Xrotation Yrotation Zrotation
                            End Site
                            {
                                OFFSET   0.116353  -0.002500   0.000000
                            }
                        }
                    }
                }
            }
        }
    }
    JOINT rHip
    {
        OFFSET  -0.100000  -0.051395   0.000000
        CHANNELS 3 Xrotation Yrotation Zrotation
        JOINT rKnee
        {
            OFFSET   0.000000  -0.410000   0.000000
            CHANNELS 3 Xrotation Yrotation Zrotation
            JOINT rAnkle
            {
                OFFSET   0.000000  -0.390000   0.000000
                CHANNELS 3 Xrotation Yrotation Zrotation
                JOINT rToeJoint
                {
                    OFFSET   0.000000  -0.050000   0.130000
                    CHANNELS 3 Xrotation Yrotation Zrotation
                    End Site
                    {
                        OFFSET  -0.010000   0.002000   0.060000
                    }
                }
            }
        }
    }
    JOINT lHip
    {
        OFFSET   0.100000  -0.051395   0.000000
        CHANNELS 3 Xrotation Yrotation Zrotation
        JOINT lKnee
        {
            OFFSET   0.000000  -0.410000   0.000000
            CHANNELS 3 Xrotation Yrotation Zrotation
            JOINT lAnkle
            {
                OFFSET   0.000000  -0.390000   0.000000
                CHANNELS 3 Xrotation Yrotation Zrotation
                JOINT lToeJoint
                {
                    OFFSET   0.000000  -0.050000   0.130000
                    CHANNELS 3 Xrotation Yrotation Zrotation
                    End Site
                    {
                        OFFSET   0.010000   0.002000   0.060000
                    }
                }
            }
        }
    }
}
MOTION
Frames: 5
Frame Time:   0.008333
 -2.391602   1.034851   4.043699  -1.906592  -4.168051 -13.989693   3.644104   1.591564  13.842436   2.710884  -2.347682   2.920631  -2.165464  -2.857152  -2.259362   7.213663  -3.605085 -10.661245  13.016487   5.313567  53.289143  -0.002994  25.695849   0.000907   2.713941   1.118302  -1.610368  11.863408   7.172677   3.933114  17.268899  -7.559603 -60.050814  -0.001337 -25.105407   0.000179   1.361631  -6.449078  -0.202053 -13.253297  -5.829245   4.619148  46.124118   0.002789   0.001808   1.636620 -10.656323   8.369451   1.199106  -0.006895  -0.008993 -12.992604   2.632960  16.973755  25.106900   0.008116   0.018116  45.236527   1.653856  -3.091505 -22.445661   0.029471  -0.030234
 -2.390238   1.045798   4.043689  -1.846476  -4.359163 -13.069637   3.309844   1.756707  12.826908   2.907014  -2.422738   3.080740  -2.030019  -2.580118  -2.131737   7.339343  -3.752237 -10.049161  13.156618   5.285032  52.830736  -0.002453  25.672862   0.000754   2.772889   1.088742  -2.010054  12.091310   6.944558   3.469343  17.540759  -7.404000 -59.656403  -0.001396 -24.804775  -0.000796   1.354042  -6.253078  -0.065228 -13.348063  -5.504313   3.544958  45.819073   0.001915   0.002006   2.746405 -10.211878   8.574655   1.461522  -0.005391  -0.006938 -12.625106   2.754838  15.646638  24.610953   0.005222   0.016792  42.535589   1.550986  -3.294165 -18.979493   0.033607  -0.047803
 -2.388983   1.056134   4.043410  -1.868774  -4.547340 -11.939048   3.097789   1.935761  11.609737   3.173681  -2.530898   3.045613  -1.863354  -2.298485  -2.051025   7.443309  -3.855320  -9.248999  13.254740   5.306431  52.541898  -0.002027  25.657646   0.000629   2.828138   1.085977  -2.272173  12.204786   6.609723   2.962489  17.693202  -7.307987 -59.261461  -0.001930 -24.528586  -0.002000   1.349232  -5.933758   0.169030 -13.436754  -5.086354   2.241138  45.389980   0.000957   0.002347   3.786484  -9.794564   8.755873   1.768861  -0.004153  -0.005214 -12.287191   2.917960  14.155205  24.623996   0.004201   0.013381  39.992189   1.453842  -3.492956 -16.118497   0.033099  -0.056720
 -2.387939   1.065859   4.043013  -1.900921  -4.740793 -10.819649   2.934306   2.090056  10.395194   3.439418  -2.663703   2.937695  -1.691815  -2.033681  -2.000428   7.539902  -3.937290  -8.408165  13.335002   5.352193  52.346822  -0.001649  25.651968   0.000511   2.883970   1.131850  -2.365977  12.258240   6.246342   2.430686  17.779259  -7.257078 -58.930620  -0.002533 -24.292051  -0.002992   1.345814  -5.696644   0.352974 -13.561536  -4.674183   0.961671  44.917017   0.000200   0.002666   4.753099  -9.403686   8.917167   2.053513  -0.003251  -0.003856 -11.937122   3.083185  12.754291  24.739858   0.003544   0.010262  37.625763   1.369666  -3.685357 -13.490919   0.029958  -0.060677
 -2.387092   1.074945   4.042563  -1.928411  -4.935740  -9.751882   2.796768   2.211917   9.218377   3.684512  -2.816775   2.796747  -1.525991  -1.786674  -1.963369   7.633226  -4.011558  -7.574425  13.407816   5.405830  52.204524  -0.001328  25.650139   0.000409   2.938848   1.203705  -2.358294  12.272935   5.876102   1.887502  17.822598  -7.237460 -58.656147  -0.003034 -24.087593  -0.003708   1.343371  -5.553330   0.468827 -13.725661  -4.285952  -0.249725  44.441423  -0.000315   0.002906   5.651813  -9.036906   9.061478   2.310804  -0.002600  -0.002808 -11.568104   3.238150  11.478031  24.879397   0.002967   0.007725  35.419165   1.298693  -3.869658 -11.078935   0.025418  -0.061011
